<?xml version="1.0" encoding="utf-8"?>
<!DOCTYPE svg PUBLIC "-//W3C//DTD SVG 1.1//EN" "http://www.w3.org/Graphics/SVG/1.1/DTD/svg11.dtd">
<svg version="1.1" id="keyColors" xmlns="http://www.w3.org/2000/svg" xmlns:xlink="http://www.w3.org/1999/xlink" x="0px" y="0px"
	 width="300px" height="26.667px" viewBox="0 0 300 26.667" enable-background="new 0 0 300 26.667" xml:space="preserve">
<text transform="matrix(1 0 0 1 37.0693 8)" font-family="sans-serif" font-size="9">50,000</text>
<text transform="matrix(1 0 0 1 -0.3364 8)" font-family="sans-serif" font-size="9">0</text>
<text transform="matrix(1 0 0 1 84.5249 8)" font-family="sans-serif" font-size="9">100,000</text>
<text transform="matrix(1 0 0 1 134.4829 8)" font-family="sans-serif" font-size="9">250,000</text>
<text transform="matrix(1 0 0 1 184.4414 8)" font-family="sans-serif" font-size="9">500,000</text>
<text transform="matrix(1 0 0 1 230.6465 8)" font-family="sans-serif" font-size="9">1,000,000</text>
<rect y="11.5" fill="#F1EEF6" stroke="#000000" stroke-width="0.25" stroke-miterlimit="10" width="49.929" height="14"/>
<rect x="49.772" y="11.5" fill="#BDC9E0" stroke="#000000" stroke-width="0.25" stroke-miterlimit="10" width="49.929" height="14"/>
<rect x="99.543" y="11.5" fill="#74A9CE" stroke="#000000" stroke-width="0.25" stroke-miterlimit="10" width="49.929" height="14"/>
<rect x="149.316" y="11.5" fill="#2C8CBE" stroke="#000000" stroke-width="0.25" stroke-miterlimit="10" width="49.928" height="14"/>
<rect x="199.088" y="11.5" fill="#015A8D" stroke="#000000" stroke-width="0.25" stroke-miterlimit="10" width="49.929" height="14"/>
<rect x="249.183" y="11.5" fill="#002244" stroke="#000000" stroke-width="0.25" stroke-miterlimit="10" width="49.929" height="14"/>
</svg>